<svg width="128" height="128" viewBox="0 0 128 128" fill="none" xmlns="http://www.w3.org/2000/svg">
  <g fill="#000000">
    <g stroke="#FFFFFF" stroke-width="0.85">
      <circle cx="8" cy="14" r="1.7"/>
      <circle cx="15" cy="10" r="1.9"/>
      <circle cx="24" cy="8" r="2.1"/>
      <circle cx="34" cy="8" r="1.8"/>
      <circle cx="10" cy="24" r="1.5"/>
      <circle cx="19" cy="20" r="2"/>
      <circle cx="28" cy="18" r="1.7"/>
      <circle cx="39" cy="18" r="2.1"/>
      <circle cx="8" cy="34" r="1.9"/>
      <circle cx="17" cy="31" r="1.7"/>
      <circle cx="28" cy="29" r="2"/>
      <circle cx="40" cy="29" r="1.8"/>
      <circle cx="9" cy="45" r="1.6"/>
      <circle cx="20" cy="42" r="1.9"/>
      <circle cx="31" cy="40" r="1.7"/>
      <circle cx="42" cy="40" r="2.1"/>
      <circle cx="10" cy="56" r="1.8"/>
      <circle cx="21" cy="53" r="1.6"/>
      <circle cx="33" cy="52" r="1.9"/>
      <circle cx="45" cy="52" r="1.7"/>
      <circle cx="11" cy="68" r="1.7"/>
      <circle cx="24" cy="65" r="1.8"/>
      <circle cx="37" cy="64" r="1.9"/>
      <circle cx="49" cy="63" r="2"/>
      <circle cx="12" cy="80" r="1.6"/>
      <circle cx="25" cy="78" r="1.8"/>
      <circle cx="39" cy="76" r="1.7"/>
      <circle cx="52" cy="75" r="1.9"/>
      <circle cx="14" cy="92" r="1.7"/>
      <circle cx="28" cy="90" r="1.9"/>
      <circle cx="42" cy="88" r="1.8"/>
      <circle cx="55" cy="87" r="2"/>
      <circle cx="18" cy="104" r="1.9"/>
      <circle cx="32" cy="102" r="1.8"/>
      <circle cx="47" cy="100" r="1.9"/>
      <circle cx="60" cy="98" r="2.1"/>
      <circle cx="25" cy="114" r="2"/>
      <circle cx="41" cy="112" r="1.8"/>
      <circle cx="56" cy="110" r="1.9"/>
    </g>
    <g stroke="#FFFFFF" stroke-width="1.15">
      <circle cx="14" cy="16" r="2.5"/>
      <circle cx="31" cy="14" r="2.7"/>
      <circle cx="48" cy="13" r="2.9"/>
      <circle cx="13" cy="39" r="2.5"/>
      <circle cx="24" cy="35" r="2.8"/>
      <circle cx="36" cy="34" r="2.5"/>
      <circle cx="50" cy="33" r="2.8"/>
      <circle cx="14" cy="62" r="2.7"/>
      <circle cx="28" cy="59" r="2.9"/>
      <circle cx="42" cy="58" r="2.8"/>
      <circle cx="56" cy="57" r="3"/>
      <circle cx="17" cy="86" r="2.6"/>
      <circle cx="32" cy="83" r="2.8"/>
      <circle cx="47" cy="81" r="2.9"/>
      <circle cx="61" cy="79" r="3.1"/>
      <circle cx="22" cy="108" r="2.8"/>
      <circle cx="38" cy="105" r="2.7"/>
      <circle cx="54" cy="103" r="2.9"/>
    </g>
    <g stroke="#FFFFFF" stroke-width="1.45">
      <circle cx="21" cy="24" r="3.5"/>
      <circle cx="36" cy="23" r="3.8"/>
      <circle cx="54" cy="22" r="4"/>
      <circle cx="19" cy="49" r="3.6"/>
      <circle cx="34" cy="47" r="4"/>
      <circle cx="51" cy="46" r="4.2"/>
      <circle cx="22" cy="73" r="3.7"/>
      <circle cx="39" cy="71" r="4"/>
      <circle cx="56" cy="69" r="4.3"/>
      <circle cx="26" cy="96" r="3.8"/>
      <circle cx="44" cy="94" r="4.1"/>
      <circle cx="61" cy="91" r="4.3"/>
    </g>
    <g stroke="#FFFFFF" stroke-width="1.8">
      <circle cx="46" cy="58" r="5"/>
      <circle cx="54" cy="94" r="5.1"/>
    </g>
  </g>
  <g stroke="#FFFFFF" stroke-width="2.8" stroke-linecap="round" stroke-linejoin="round">
    <path d="M71 21L56 21L56 107L71 107" fill="#000000"/>
    <path d="M103 21L71 54L103 87" fill="none"/>
  </g>
  <g aria-label="Dense">
    <text x="78" y="67" fill="#000000" font-family="Arial, Helvetica, sans-serif" font-size="18" font-weight="700" stroke="#FFFFFF" stroke-width="2.8" paint-order="stroke fill">Dense</text>
  </g>
</svg>
